inDegrees=yes
name=ik_S54_A09_T01
DataType=double
version=3
OpenSimVersion=4.3-2021-08-27-4bc7ad9
endheader
time	pelvis_tilt	pelvis_list	pelvis_rotation	pelvis_tx	pelvis_ty	pelvis_tz	hip_flexion_r	hip_adduction_r	hip_rotation_r	knee_angle_r	knee_angle_r_beta	ankle_angle_r	subtalar_angle_r	mtp_angle_r	hip_flexion_l	hip_adduction_l	hip_rotation_l	knee_angle_l	knee_angle_l_beta	ankle_angle_l	subtalar_angle_l	mtp_angle_l	lumbar_extension	lumbar_bending	lumbar_rotation	arm_flex_r	arm_add_r	arm_rot_r	elbow_flex_r	pro_sup_r	wrist_flex_r	wrist_dev_r	arm_flex_l	arm_add_l	arm_rot_l	elbow_flex_l	pro_sup_l	wrist_flex_l	wrist_dev_l
14.85999999999977	-7.674620567784241	-2.446333616207162	20.03116731799043	0	0.9399999999999999	0	42.94972209117699	-10.13302092065454	-10.08538646221364	55.66861844182927	0.9716006818463561	0	0	0	42.94972209117699	-10.13302092065454	-10.08538646221364	55.66861844182927	0.9716006818463561	0	0	0	-6.550409448910545	-1.949557490589354	5.433460288563672	75.26995348141342	3.823159908433632	2.432734917821517	52.60996786946235	131.6615764940087	0	0	60.74728544397087	-24.79610255245938	4.654197247754043	51.14727658638731	111.765383265193	0	0
14.87999999999977	-7.660350106298941	-2.451448927423709	20.04312896837934	0	0.9399999999999999	0	42.9505598425165	-10.13283316077189	-10.08530888340713	55.66843387546651	0.9715974605556376	0	0	0	42.9505598425165	-10.13283316077189	-10.08530888340713	55.66843387546651	0.9715974605556376	0	0	0	-6.538694713251914	-1.958673141357203	5.430081278432662	75.49015154455923	3.850850772934758	2.536331272357164	52.30021471254616	131.946085460119	0	0	60.70458626292633	-24.75199969005981	4.708004474730885	50.46463896486815	110.7790696659336	0	0
14.89999999999977	-7.63235871411461	-2.484064584369801	20.04419600639594	0	0.9399999999999999	0	42.95189057735868	-10.13253217149865	-10.08518487319593	55.66814357826339	0.9715923939136338	0	0	0	42.95189057735868	-10.13253217149865	-10.08518487319593	55.66814357826339	0.9715923939136338	0	0	0	-6.523744496081038	-1.998703516835768	5.430408834454315	75.70994368297119	3.891840021285519	2.55005937609164	51.88289599169567	132.3765645158834	0	0	60.71665841205898	-24.7830964750814	4.797181113037383	50.28245148167672	110.484938677903	0	0
14.91999999999977	-7.615498713308934	-2.498472334480098	20.04797732892548	0	0.9399999999999999	0	42.95211173765622	-10.13248326356979	-10.08516456544756	55.66809433717522	0.971591534494518	0	0	0	42.95211173765622	-10.13248326356979	-10.08516456544756	55.66809433717522	0.971591534494518	0	0	0	-6.512998758450548	-2.0172817620105	5.423371011312034	75.8614879065281	3.868533869450997	2.676521291729577	51.81403281870569	132.3539671986509	0	0	60.69568205109714	-24.80115859236938	4.81587429780564	50.24016338637779	110.4111185625567	0	0
14.93999999999977	-7.624420266167881	-2.506430106954973	20.06444101394358	0	0.9399999999999999	0	42.95252710162531	-10.13239080629397	-10.08512625549074	55.66800247119657	0.97158993113072	0	0	0	42.95252710162531	-10.13239080629397	-10.08512625549074	55.66800247119657	0.97158993113072	0	0	0	-6.524904406153681	-2.019133776571726	5.404987008047195	75.97762675376781	3.868861554603752	2.8958309756994	51.59790516091647	132.1273800023577	0	0	60.74034719895311	-24.80492623574612	4.828817285764454	50.21194919845312	110.2496986360995	0	0
14.95999999999977	-7.61128986164104	-2.542153588180541	20.06558894719101	0	0.9399999999999999	0	42.95299647238097	-10.13228631591747	-10.08508295833755	55.66789870489932	0.9715881200671804	0	0	0	42.95299647238097	-10.13228631591747	-10.08508295833755	55.66789870489932	0.9715881200671804	0	0	0	-6.525426305262035	-2.055117613323531	5.38810222036598	76.0486056277326	3.868109798077622	3.001745639030831	51.45449703316022	131.7986415545616	0	0	60.76906854000768	-24.85258506466085	4.895020756669235	50.24188477439878	110.1840310052777	0	0
14.97999999999977	-7.59051125514324	-2.60403788085419	20.03669969394977	0	0.9399999999999999	0	42.95347748961083	-10.13217943404898	-10.08503863281796	55.6677922863792	0.971586262713619	0	0	0	42.95347748961083	-10.13217943404898	-10.08503863281796	55.6677922863792	0.971586262713619	0	0	0	-6.52698384449908	-2.120590443856665	5.387410931599066	76.13409728586527	3.836852290730192	3.00412927545666	51.36037968162732	131.3917520108824	0	0	60.81981703763294	-24.93944259358395	5.012629933154254	50.25936208845361	110.1105877783812	0	0
14.99999999999977	-7.586476897819741	-2.618412765025719	19.99301603969761	0	0.9399999999999999	0	42.9539850153852	-10.13206821613299	-10.08499228663085	55.66767860642523	0.971584278624129	0	0	0	42.9539850153852	-10.13206821613299	-10.08499228663085	55.66767860642523	0.971584278624129	0	0	0	-6.526711421455918	-2.139658124952611	5.420280185766157	76.18797310219864	3.74093724995499	3.062106516480585	51.20721544623518	130.8744839142817	0	0	60.82012287365619	-24.94105705714267	5.043978644583222	50.20163140395228	109.9429437085875	0	0
15.01999999999977	-7.582385149701369	-2.645385510904524	19.98067957578955	0	0.9399999999999999	0	42.95549915424477	-10.13172997458988	-10.08485224824315	55.66734549886016	0.971578464800355	0	0	0	42.95549915424477	-10.13172997458988	-10.08485224824315	55.66734549886016	0.971578464800355	0	0	0	-6.531881712475949	-2.167763388943948	5.43429274380384	76.27599690040522	3.502659101672633	3.356029036946637	51.29448357260584	129.7709946907522	0	0	60.85910937937999	-24.97335947836344	5.095151566583006	50.2022744032873	109.9271002944517	0	0
15.03999999999977	-7.572514743931552	-2.654819289168154	20.01240574399223	0	0.9399999999999999	0	42.95603258301791	-10.13161210483383	-10.08480325639842	55.66722707448695	0.9715763979051278	0	0	0	42.95603258301791	-10.13161210483383	-10.08480325639842	55.66722707448695	0.9715763979051278	0	0	0	-6.526936319916604	-2.17705741328773	5.413147956235203	76.24494263329117	3.571384481334302	3.344475445418155	51.02343769982362	129.4794351966137	0	0	60.85870991075962	-24.972226199464	5.135788519333198	50.1455595618847	109.8154159888953	0	0
15.05999999999977	-7.567962122047483	-2.663353784401569	19.79358136003012	0	0.9399999999999999	0	42.95668057388004	-10.13146645948247	-10.08474306114375	55.66708558060598	0.9715739283710336	0	0	0	42.95668057388004	-10.13146645948247	-10.08474306114375	55.66708558060598	0.9715739283710336	0	0	0	-6.515159197257224	-2.213312553958527	5.627271120637366	76.24066708152151	3.527688904658838	3.544305811115663	50.9783127988639	129.2499509331375	0	0	60.73103573220806	-23.58860406537379	6.601061476686721	49.79345057376161	109.8473747552143	0	0
15.07999999999977	-7.564512852523539	-2.689381306807508	19.79195219805798	0	0.9399999999999999	0	42.95810055470928	-10.13106997006513	-10.08459457204643	55.6667857364445	0.971568695103173	0	0	0	42.95810055470928	-10.13106997006513	-10.08459457204643	55.6667857364445	0.971568695103173	0	0	0	-6.521673398426246	-2.237004990186755	5.616306876152146	76.26432249024178	3.560748431315755	3.536755768716321	51.01790090306486	129.2108650307704	0	0	60.77478558355517	-23.61574719197747	6.645121850121814	49.75372868212212	109.8534182617702	0	0
15.09999999999977	-7.564112465489685	-2.725716962483328	19.64255898861441	0	0.9399999999999999	0	42.95897968623038	-10.13087272391269	-10.08451294940693	55.66659396705738	0.9715653480959632	0	0	0	42.95897968623038	-10.13087272391269	-10.08451294940693	55.66659396705738	0.9715653480959632	0	0	0	-6.526032357585854	-2.289649035842752	5.76795084305483	76.31633230680517	3.328711722798377	3.61536691019276	51.23590307117865	128.8810158729125	0	0	60.87674199447476	-23.2400024839524	8.207462989055886	49.51257656578817	109.0618141619105	0	0
15.11999999999977	-7.573530973677419	-2.752113545794571	19.55993042923301	0	0.9399999999999999	0	42.95998271723616	-10.13064846334819	-10.08442001993104	55.66637466044052	0.9715615204734275	0	0	0	42.95998271723616	-10.13064846334819	-10.08442001993104	55.66637466044052	0.9715615204734275	0	0	0	-6.540453469575458	-2.321044265538143	5.845430447817466	76.35896526456122	3.266733945197132	3.710368984139572	51.36924976863266	128.6334837407732	0	0	60.94001073601487	-23.14695655304942	8.817950338593366	49.18697171833264	108.0477380628326	0	0
15.13999999999977	-7.569287401486775	-2.764757660312053	19.50283114675218	0	0.9399999999999999	0	42.9607417233787	-10.13047919385514	-10.08434980539951	55.66620844830682	0.9715586195244377	0	0	0	42.9607417233787	-10.13047919385514	-10.08434980539951	55.66620844830682	0.9715586195244377	0	0	0	-6.538317539819712	-2.341082285095667	5.899853410747855	76.37307486544098	3.220642604345283	3.863429726441324	51.34804288379813	128.2458138865368	0	0	60.9227734675418	-23.04289842170253	9.261839052852512	49.08096536522161	107.5733828059835	0	0
15.15999999999977	-7.568687150956624	-2.785598070981923	19.46344852512901	0	0.9399999999999999	0	42.9613208686777	-10.13035148415413	-10.08429662052183	55.66608035700641	0.9715563839095025	0	0	0	42.9613208686777	-10.13035148415413	-10.08429662052183	55.66608035700641	0.9715563839095025	0	0	0	-6.54361842489144	-2.36421862676082	5.92690091663091	76.39262877818707	3.199978180447065	4.016046264532529	51.26200864002879	127.7561225519684	0	0	60.96658449072987	-22.98921221727611	9.44462129055686	48.99021615664462	107.4424616121511	0	0
